# xmcd
#
# Track frame offsets:
#	150
#	20642
#	36305
#	48590
#	64585
#	76107
#	87150
#	102662
#	113790
#	126980
#	142435
#	155787
#	170410
#	190130
#	206952
#	221492
#	233747
#	245675
#	262362
#	276250
#	276625
#	277000
#	277677
#
# Disc length: 3961 seconds
#
# Revision: 0
# Processed by: cddbd v1.5.2PL0 Copyright (c) Steve Scherf et al.
# Submitted via: EZCDAudioConverter 2.3.0.1
#
DISCID=770f7717
DTITLE=GoldDisc 1006
DYEAR=1900
DGENRE=
TTITLE0=Rosanne Cash - Blue Moon With A Heartache
TTITLE1=Alabama - Can't Keep A Good Man Down
TTITLE2=Moe Bandy - It's A Cheatin' Situation
TTITLE3=Exile - Kiss You All over
TTITLE4=Crystal Gayle - The Woman in Me
TTITLE5=Gary Morris - Velvet Chains
TTITLE6=Larry Gatlin and the Gatlin Brothers - Sure Feels Like Love
TTITLE7=Everly Brothers - Till I Kissed You
TTITLE8=Barbara Mandrell - Wish You Were Here
TTITLE9=George Jones - Shine On (Shine All Your Sweet love On Me)
TTITLE10=Judds - Girls Night out
TTITLE11=Kenny Rogers - Love The World Away
TTITLE12=Willie Nelson - Last thing I Needed First thing This Morning
TTITLE13=Ronnie Milsap - Any Day now
TTITLE14=Charlie McClain - Radio Heart
TTITLE15=Pure Prairie League - Amie (single)
TTITLE16=Eddie Rabbitt - Hearts on Fire
TTITLE17=Oak Ridge Boys - I'll Be True To You
TTITLE18=Conway Twitty - Between Blue Eyes and Blue Jeans
TTITLE19=b - b
TTITLE20=b - b
TTITLE21=b - b
TTITLE22=Pure Prairie League - Amie (Long Version)
EXTD=
EXTT0=
EXTT1=
EXTT2=
EXTT3=
EXTT4=
EXTT5=
EXTT6=
EXTT7=
EXTT8=
EXTT9=
EXTT10=
EXTT11=
EXTT12=
EXTT13=
EXTT14=
EXTT15=
EXTT16=
EXTT17=
EXTT18=
EXTT19=
EXTT20=
EXTT21=
EXTT22=
PLAYORDER=
